<svg xmlns="http://www.w3.org/2000/svg" width="76.272" height="38.349" viewBox="0 0 76.272 38.349"><defs><style>.a{fill:#7f7f81;}.b{fill:#27397b;}.c{fill:#9d9fa2;}.d{fill:#d3da2c;}.e{fill:#76bc43;}.f{fill:#2cb5bb;}.g{fill:#59b65e;}.h{fill:#358aca;}.i{fill:#1e3c72;}</style></defs><path class="a" d="M54.42,29h0c0,3.741-2.721,6.462-7.058,6.462a9.437,9.437,0,0,1-7.653-3.316l2.976-2.806a6.321,6.321,0,0,0,4.677,2.381,2.413,2.413,0,0,0,2.721-2.126h0v-.255h0c0-1.7-1.446-2.636-3.826-2.636H44.471l-.68-2.721,6.292-6.292-2.551,1.7h-6.8V15.646H53.995v3.231l-4.932,4.677c2.806.34,5.357,1.786,5.357,5.442M42.175,6.632a2.983,2.983,0,0,1,2.891-3.146h2.126l-.51.255V8.5a3.488,3.488,0,0,0,.085.935c0,.17.085.255.17.425h-1.7A3.048,3.048,0,0,1,42.175,6.8Zm3.061,4.081h1.786v-.6a2.254,2.254,0,0,0,.51.425,2.483,2.483,0,0,0,.765.17H64.028V2.636h-.85V9.864h-14.8a.767.767,0,0,1-.425-.085c-.085-.085-.17-.085-.255-.255a.511.511,0,0,1-.085-.34V2.636H45.236a3.92,3.92,0,0,0-4,3.911v.085h0a3.956,3.956,0,0,0,3.826,4h.17M70.32,1.786H68.45v-.68A1.436,1.436,0,0,1,68.7.255,1.187,1.187,0,0,1,69.47,0h.6V.6h-.6a.3.3,0,0,0-.34.34v.17h1.19v.68ZM72.531,10.8a1.658,1.658,0,0,1-.68-.085l.255-.85h.425a.767.767,0,0,0,.425-.085c.085-.085.17-.085.255-.255,0-.085.085-.255.085-.34V2.636h.85V8.673a2.893,2.893,0,0,1-.085.85,5.857,5.857,0,0,1-.255.68,1.25,1.25,0,0,1-.51.425,2.483,2.483,0,0,1-.765.17m-25-9.013h-.85V.935h.85ZM66.409,4.762a2.046,2.046,0,0,1,.51-.68,3.446,3.446,0,0,1,.765-.425,3.021,3.021,0,0,1,.85-.17H69.9l-.51.255V7.568h-.85A3.616,3.616,0,0,1,67.6,7.4a3.021,3.021,0,0,1-.765-.34,1.322,1.322,0,0,1-.51-.68,3.021,3.021,0,0,1-.17-.85l.255-.765m.085,2.976a2.635,2.635,0,0,0,1.105.51,7.442,7.442,0,0,0,1.36.17h.255l.255-.6v.85a1.161,1.161,0,0,1-.34.935,1.29,1.29,0,0,1-1.105.255,1.658,1.658,0,0,1-.68-.085c-.255-.085-.425-.17-.68-.255l-.255.85c.255.085.6.17.85.255a2.354,2.354,0,0,0,.765.085,2,2,0,0,0,1.786-.68,2.245,2.245,0,0,0,.6-1.616V2.466h-1.36a3.972,3.972,0,0,0-1.446.255,4.581,4.581,0,0,0-1.105.6,2.411,2.411,0,0,0-.68.935,2.053,2.053,0,0,0-.34,1.275A3.106,3.106,0,0,0,65.729,6.8a9.037,9.037,0,0,0,.765.935M45.917,1.7h-.85V.85h.85Zm-8.928.85h.85v7.993h-.68L31.376,3.4l.51,1.19v6.037h-.85V2.636h.85l5.442,6.887L36.9,8.5Zm-33.5,8.163L0,2.636H1.02l.51,1.19,2.381,5.7.255.51-.085-.85L6.8,2.636h.935L4.252,10.714ZM18.877,2.636h.935v7.993h-.935Zm9.694,4a3.2,3.2,0,0,1-2.976,3.316h-.17A3.27,3.27,0,0,1,22.193,6.8v-.17h0a3.147,3.147,0,0,1,2.976-3.316h.17A3.23,3.23,0,0,1,28.57,6.547v.085ZM25.424,2.466a4.14,4.14,0,0,0-4.167,4h0v.17h0a4.16,4.16,0,0,0,3.911,4.337,4.1,4.1,0,0,0,4.337-3.911h0V6.632h0a3.994,3.994,0,0,0-3.911-4.081l-.17-.085M17.346,8.5h0c0,1.36-1.105,2.211-2.721,2.211a4.623,4.623,0,0,1-3.316-1.275l.6-.68a3.722,3.722,0,0,0,2.721,1.105c1.105,0,1.786-.6,1.786-1.36h0c0-.765-.425-1.19-2.126-1.531s-2.721-1.02-2.721-2.3h0a2.387,2.387,0,0,1,2.551-2.211h.17a4.639,4.639,0,0,1,2.806.935l-.51.68a3.818,3.818,0,0,0-2.3-.85c-1.02,0-1.7.6-1.7,1.275h0c0,.765.425,1.19,2.211,1.531s2.636,1.02,2.636,2.211m-7.568,2.3H8.928V2.636h.935Zm52.974.935h.85v.85h-.85Zm-1.7,0h.85v.85h-.85Zm-53.91,19.9H14.71v3.741H.255v-3.4L6.632,26.36c2.466-2.041,3.4-3.061,3.4-4.677a2.387,2.387,0,0,0-2.211-2.551H7.4c-1.531,0-2.551.85-4,2.636L.425,19.387c1.956-2.721,3.826-4.081,7.313-4.081,4.081,0,6.717,2.381,6.717,6.037h0c0,3.231-1.7,4.847-5.1,7.568L5.017,32.142l-.85.68Zm64.623-5.952a5.812,5.812,0,0,1-5.612,6.037h-.255a5.916,5.916,0,0,1-5.952-5.952v-.255a5.757,5.757,0,0,1,5.612-6.037H65.9a5.916,5.916,0,0,1,5.952,5.952v.255Zm-5.867-10.2A10.148,10.148,0,0,0,55.525,25v.425a10.034,10.034,0,0,0,9.949,10.034H65.9a10.021,10.021,0,0,0,10.374-9.779h0v-.425a10.034,10.034,0,0,0-9.949-10.034h-.34" transform="translate(0 0)"/><path class="b" d="M30.835,16.4l1.02.935-1.02,1.02-.935-1.02Z" transform="translate(-4.476 -2.455)"/><path class="c" d="M33.7,17.335l.935,1.02,1.02-1.02-1.02-.935Z" transform="translate(-5.045 -2.455)"/><path class="d" d="M32,18.865l.765.765.765-.765-.765-.765Z" transform="translate(-4.79 -2.709)"/><path class="e" d="M35.4,19.365l.765.765.68-.765L36.08,18.6Z" transform="translate(-5.299 -2.784)"/><path class="d" d="M30.5,20.265l.85.765.68-.765-.765-.765Z" transform="translate(-4.566 -2.919)"/><path class="f" d="M34.365,21.131l-.765-.765.765-.765.765.765Z" transform="translate(-5.03 -2.934)"/><path class="e" d="M32.91,22.005l-.51-.6.51-.51.6.51Z" transform="translate(-4.85 -3.129)"/><path class="g" d="M34.8,21.91l.6.51.51-.51-.6-.51Z" transform="translate(-5.209 -3.203)"/><rect class="h" width="1.701" height="1.701" transform="translate(33.957 14.623) rotate(-10.411)"/><rect class="i" width="1.36" height="1.36" transform="translate(31.859 15.355) rotate(-10.382)"/><rect class="f" width="1.361" height="1.361" transform="translate(34.497 17.226) rotate(-10.399)"/><rect class="d" width="1.105" height="1.105" transform="translate(32.648 17.37) rotate(-10.399)"/><rect class="c" width="1.105" height="1.105" transform="translate(34.689 19.413) rotate(-10.399)"/><rect class="f" width="1.02" height="1.02" transform="translate(30.952 17.786) rotate(-10.411)"/><rect class="e" width="1.105" height="1.105" transform="translate(32.901 19.156) rotate(-10.399)"/><rect class="c" width="0.765" height="0.765" transform="translate(31.655 19.292) rotate(-10.422)"/><rect class="g" width="0.765" height="0.765" transform="translate(33.013 20.822) rotate(-10.382)"/><path class="b" d="M45.865,23.7,45.1,25.231l1.531.68L47.4,24.38Z" transform="translate(-6.751 -3.548)"/><path class="f" d="M43.3,22.8l-.6,1.275,1.275.6.51-1.275Z" transform="translate(-6.392 -3.413)"/><path class="e" d="M44.5,26.4l-.6,1.275,1.19.51.6-1.19Z" transform="translate(-6.571 -3.952)"/><path class="d" d="M42.61,25.3l-.51.935,1.02.51.425-1.02Z" transform="translate(-6.302 -3.787)"/><path class="d" d="M43.125,28.6l-.425.935.935.51.51-1.02Z" transform="translate(-6.392 -4.281)"/><path class="h" d="M40.81,24.6l-.51,1.02,1.02.425.425-.935Z" transform="translate(-6.033 -3.682)"/><path class="c" d="M41.625,27.3l-.425.935.935.425.51-.935Z" transform="translate(-6.167 -4.087)"/><rect class="e" width="0.765" height="0.765" transform="matrix(0.43, -0.903, 0.903, 0.43, 33.962, 23.197)"/><rect class="f" width="0.765" height="0.765" transform="translate(34.198 25.244) rotate(-64.532)"/><path class="h" d="M46.646,32.3l-1.446.85.765,1.531,1.531-.85Z" transform="translate(-6.766 -4.835)"/><path class="f" d="M45.09,30.1l-1.19.68.68,1.19,1.19-.6Z" transform="translate(-6.571 -4.506)"/><path class="f" d="M43.99,33.8l-1.19.6.68,1.19,1.19-.6Z" transform="translate(-6.407 -5.06)"/><path class="b" d="M43.135,31.8l-.935.51.51.935.935-.6Z" transform="translate(-6.317 -4.76)"/><path class="g" d="M41.635,34.8l-.935.51.51.935.935-.51Z" transform="translate(-6.092 -5.209)"/><path class="i" d="M42.035,30.2l-.935.51.51.935.935-.51Z" transform="translate(-6.152 -4.521)"/><path class="d" d="M41.235,32.8l-.935.51.51.935.935-.51Z" transform="translate(-6.033 -4.91)"/><rect class="c" width="0.765" height="0.765" transform="translate(33.951 27.018) rotate(-28.68)"/><rect class="f" width="0.765" height="0.765" transform="translate(33.037 28.891) rotate(-28.68)"/><rect class="e" width="1.701" height="1.701" transform="translate(34.303 35.457) rotate(-82.97)"/><rect class="i" width="1.36" height="1.36" transform="translate(34.699 32.836) rotate(-82.952)"/><rect class="f" width="1.361" height="1.361" transform="translate(32.154 34.749) rotate(-82.918)"/><rect class="e" width="1.105" height="1.105" transform="translate(32.857 32.711) rotate(-82.97)"/><rect class="c" width="1.105" height="1.105" transform="translate(30.321 34.04) rotate(-82.97)"/><rect class="c" width="1.105" height="1.105" transform="matrix(0.123, -0.992, 0.992, 0.123, 32.961, 31.055)"/><rect class="e" width="1.105" height="1.105" transform="matrix(0.123, -0.992, 0.992, 0.123, 31, 32.536)"/><rect class="c" width="0.765" height="0.765" transform="translate(31.721 30.875) rotate(-82.958)"/><rect class="c" width="0.765" height="0.765" transform="translate(29.766 31.77) rotate(-82.958)"/><path class="d" d="M34.266,43.39,32.99,42.2,31.8,43.475l1.275,1.19Z" transform="translate(-4.76 -6.317)"/><path class="e" d="M33.981,15.29,32.705,14.1,31.6,15.375l1.19,1.19Z" transform="translate(-4.73 -2.111)"/><path class="f" d="M35.956,41.235l-1.02-.935L34,41.32l1.02.935Z" transform="translate(-5.09 -6.033)"/><path class="e" d="M32.156,41.335l-1.02-.935-.935.935,1.02,1.02Z" transform="translate(-4.521 -6.048)"/><path class="h" d="M33.831,39.865l-.765-.765-.765.765.765.765Z" transform="translate(-4.835 -5.853)"/><path class="d" d="M29.68,38.7l.85.68-.765.85L29,39.465Z" transform="translate(-4.341 -5.793)"/><path class="d" d="M35.031,38.365l-.85-.765-.68.765.765.765Z" transform="translate(-5.015 -5.628)"/><path class="c" d="M32.231,38.38l-.765-.68-.765.765.765.68Z" transform="translate(-4.596 -5.643)"/><path class="i" d="M32.91,36.9l.6.51-.51.51-.6-.51Z" transform="translate(-4.85 -5.524)"/><path class="c" d="M30.51,36.4l.6.51-.51.6L30,37Z" transform="translate(-4.491 -5.449)"/><rect class="h" width="1.701" height="1.701" transform="translate(20.172 34.367) rotate(-11.332)"/><rect class="f" width="1.361" height="1.361" transform="translate(22.752 33.818) rotate(-11.338)"/><rect class="e" width="1.36" height="1.36" transform="translate(20.116 32.032) rotate(-11.35)"/><rect class="d" width="1.105" height="1.105" transform="translate(22.351 32.004) rotate(-11.35)"/><rect class="b" width="1.105" height="1.105" transform="translate(23.88 31.581) rotate(-11.35)"/><rect class="h" width="1.105" height="1.105" transform="translate(21.923 30.22) rotate(-11.35)"/><rect class="e" width="0.765" height="0.765" transform="matrix(0.98, -0.2, 0.2, 0.98, 23.738, 30.184)"/><rect class="c" width="0.765" height="0.765" transform="translate(22.21 28.823) rotate(-11.338)"/><path class="f" d="M19.831,35.2l.68-1.531L18.98,32.9l-.68,1.531Z" transform="translate(-2.739 -4.925)"/><path class="d" d="M22.475,36.071l.51-1.275-1.19-.6-.6,1.275Z" transform="translate(-3.173 -5.119)"/><path class="h" d="M21.19,32.486l.6-1.275L20.51,30.7,20,31.89Z" transform="translate(-2.994 -4.596)"/><rect class="f" width="1.105" height="1.105" transform="matrix(0.415, -0.91, 0.91, 0.415, 18.889, 28.376)"/><path class="c" d="M24.72,36.46l.425-.935L24.21,35.1l-.51.935Z" transform="translate(-3.548 -5.254)"/><rect class="b" width="1.105" height="1.105" transform="translate(18.385 25.534) rotate(-65.449)"/><rect class="g" width="1.105" height="1.105" transform="translate(20.489 28.923) rotate(-65.442)"/><rect class="d" width="1.105" height="1.105" transform="translate(19.621 26.651) rotate(-65.431)"/><rect class="i" width="0.765" height="0.765" transform="matrix(0.416, -0.909, 0.909, 0.416, 21.082, 27.467)"/><rect class="e" width="0.765" height="0.765" transform="matrix(0.416, -0.909, 0.909, 0.416, 20.765, 25.397)"/><path class="f" d="M18.85,26.5l1.446-.85-.85-1.446L18,25.05Z" transform="translate(-2.694 -3.623)"/><path class="e" d="M20.48,28.771l1.19-.68-.68-1.19-1.19.68Z" transform="translate(-2.964 -4.027)"/><path class="i" d="M21.58,25.071l1.19-.68-.68-1.19-1.19.68Z" transform="translate(-3.129 -3.473)"/><path class="h" d="M22.51,27.146l.935-.51-.51-.935L22,26.21Z" transform="translate(-3.293 -3.847)"/><path class="e" d="M23.91,24.146l.935-.51-.51-.935-.935.51Z" transform="translate(-3.503 -3.398)"/><path class="f" d="M23.61,28.746l.935-.51-.51-.935-.935.51Z" transform="translate(-3.458 -4.087)"/><path class="d" d="M24.41,26.131l.935-.6-.51-.935-.935.6Z" transform="translate(-3.578 -3.682)"/><path class="c" d="M25.72,27.28l-.68.34-.34-.68.68-.34Z" transform="translate(-3.697 -3.982)"/><path class="e" d="M26.92,25.08l-.68.34-.34-.6.6-.425Z" transform="translate(-3.877 -3.652)"/><rect class="e" width="1.701" height="1.701" transform="matrix(0.106, -0.994, 0.994, 0.106, 19.672, 16.379)"/><rect class="c" width="1.36" height="1.36" transform="matrix(0.106, -0.994, 0.994, 0.106, 19.711, 18.614)"/><rect class="f" width="1.36" height="1.36" transform="matrix(0.106, -0.994, 0.994, 0.106, 22.275, 16.645)"/><rect class="d" width="1.105" height="1.105" transform="matrix(0.106, -0.994, 0.994, 0.106, 21.937, 18.451)"/><rect class="h" width="1.105" height="1.105" transform="translate(24.455 17.14) rotate(-83.921)"/><rect class="f" width="1.105" height="1.105" transform="matrix(0.106, -0.994, 0.994, 0.106, 21.878, 20.135)"/><rect class="e" width="1.105" height="1.105" transform="translate(23.721 18.695) rotate(-83.892)"/><rect class="i" width="0.765" height="0.765" transform="matrix(0.106, -0.994, 0.994, 0.106, 23.475, 19.997)"/><rect class="c" width="0.765" height="0.765" transform="matrix(0.11, -0.994, 0.994, 0.11, 25.445, 19.357)"/><path class="a" d="M37.384,29.647a1.623,1.623,0,0,0-.68-.255,4.677,4.677,0,0,0-1.871-.17,1.641,1.641,0,0,0-.85.255H33.9l-.425.17-.34.17c-.255.17-.6.34-.85.51a18.5,18.5,0,0,1-.085-4.337h0c.68.425.425,1.531.34,1.871h0a1.933,1.933,0,0,0,.34-2.211h0a1.174,1.174,0,0,1,.255.34,1.279,1.279,0,0,1,.34.935v.51h0a1.985,1.985,0,0,0,0-1.7c-.085-.17-.255-.34-.34-.51l-.17-.17h.17c.17.085.255.085.34.17a1.322,1.322,0,0,1,.51.68,1.447,1.447,0,0,1,.085.6h0a1.387,1.387,0,0,0-.17-1.275l-.51-.51c-.085-.085-.255-.085-.34-.17h.34a1.209,1.209,0,0,1,.51.17c.17.085.255.255.34.34h0a1.05,1.05,0,0,0-.34-.68c-.17-.085-.34-.255-.51-.255h-.34a.637.637,0,0,0-.425.085h0a.849.849,0,0,1,.425-.34h.34a.643.643,0,0,1,.34.085h0a.958.958,0,0,0-1.531.085h0l-.085-.255a1.6,1.6,0,0,1-.17-.68h0a2,2,0,0,1-.17.68l-.17.255h0a.96.96,0,0,0-1.275-.34h0l-.255.255h0a.93.93,0,0,1,1.105.34h0a1.472,1.472,0,0,0-1.446.34.772.772,0,0,0-.255.6h0l.255-.255a1.952,1.952,0,0,1,1.19-.34h0a1.644,1.644,0,0,0-1.19.935,2.073,2.073,0,0,0,0,1.02h0a1.557,1.557,0,0,1,1.105-1.531h0a1.861,1.861,0,0,0-.51,2.3h0a1.812,1.812,0,0,1,.68-1.786h0a2.092,2.092,0,0,0,.255,2.211h0c-.17-.34-.34-1.446.34-1.871h0a18.5,18.5,0,0,1-.085,4.337,6.157,6.157,0,0,0-1.616-.935l-.17-.085a4.815,4.815,0,0,0-1.531-.255,3.182,3.182,0,0,0-1.531.425l-.17.085h.17a4.708,4.708,0,0,1,1.531-.17,5.162,5.162,0,0,1,1.531.425,6.552,6.552,0,0,1,1.786,1.19l-1.786,1.531h-.085a.42.42,0,0,0-.6-.085h0c-.085.085-.17.17-.17.255a.511.511,0,0,0,.085.34.633.633,0,0,0,.765.085,7.623,7.623,0,0,0,1.956-1.7l.17-.17.17.17,1.02.935.34.34a1.779,1.779,0,0,0,.51.34.772.772,0,0,0,.85,0h0a.511.511,0,0,0,.085-.34c0-.17-.17-.255-.34-.34-.17,0-.34,0-.425.17l-.17-.085-.51-.425-.34-.34-.85-.765a5.162,5.162,0,0,1,.85-.6l.34-.255.51-.255a3.553,3.553,0,0,1,.85-.34,4.635,4.635,0,0,1,1.871-.085,2,2,0,0,1,.68.17h0" transform="translate(-3.967 -3.458)"/></svg>