<svg id="Group_254" data-name="Group 254" xmlns="http://www.w3.org/2000/svg" width="153.9" height="64.821" viewBox="0 0 153.9 64.821">
  <path id="Path_51" data-name="Path 51" d="M560.3,29.553l46.8,27.01V27.01L560.3,0Z" transform="translate(-453.195)" fill="#0cad37" fill-rule="evenodd"/>
  <path id="Path_52" data-name="Path 52" d="M670.509,78.753,645.2,93.376V63.823L670.509,49.2Z" transform="translate(-521.866 -39.795)" fill="#00a0e3" fill-rule="evenodd"/>
  <path id="Path_53" data-name="Path 53" d="M670.509,109.57l-12.616,7.283L645.2,109.531V94.64l12.693-7.34,12.616,7.283Z" transform="translate(-521.866 -70.612)" fill="#0093b3" fill-rule="evenodd"/>
  <path id="Path_54" data-name="Path 54" d="M724.216,109.57,711.6,116.853V87.3l12.616,7.283Z" transform="translate(-575.573 -70.612)" fill="#018546" fill-rule="evenodd"/>
  <path id="Path_55" data-name="Path 55" d="M246.227,223.888c6.4,0,9.825-3.594,9.825-10.036V208.5h-4.7v5.257a5.456,5.456,0,0,1-1.567,3.919,4.666,4.666,0,0,1-3.173,1.434h-9.348a4.584,4.584,0,0,1-3.173-1.434,5.456,5.456,0,0,1-1.567-3.919V208.5H227.8v5.352c0,6.442,3.422,10.036,9.825,10.036Z" transform="translate(-184.255 -168.644)" fill-rule="evenodd"/>
  <rect id="Rectangle_87" data-name="Rectangle 87" width="4.722" height="12.712" transform="translate(43.507 30.107)"/>
  <path id="Path_56" data-name="Path 56" d="M16.951,182.6A15.761,15.761,0,0,1,1.2,166.867H5.96a11.03,11.03,0,0,0,10.991,10.992H29.587a7.85,7.85,0,0,0,7.608-5.964,8.055,8.055,0,0,0,.153-3.02,7.841,7.841,0,1,0-11.584,7.99H19.111a12.435,12.435,0,0,1-2.045-6.843,12.52,12.52,0,0,1,24.525-3.555,12.4,12.4,0,0,1,.325,5.735,12.6,12.6,0,0,1-12.425,10.4Z" transform="translate(-0.971 -127.393)" fill-rule="evenodd"/>
  <path id="Path_57" data-name="Path 57" d="M395.615,164.458a7.845,7.845,0,0,1,11.6,10.533l-10.246,10.265-5.142,5.142H398.5l10.953-10.972a12.553,12.553,0,0,0,4.225-9.386v-.019A12.466,12.466,0,0,0,401.159,157.5h-.019a12.547,12.547,0,0,0-2.638,24.812l4.76-4.76a7.843,7.843,0,0,1-7.646-13.094Z" transform="translate(-314.317 -127.393)" fill-rule="evenodd"/>
  <path id="Path_58" data-name="Path 58" d="M42.573,163.846a3.173,3.173,0,1,0-3.173-3.173A3.19,3.19,0,0,0,42.573,163.846Z" transform="translate(-31.868 -127.393)" fill-rule="evenodd"/>
  <path id="Path_59" data-name="Path 59" d="M3.173,164.146a3.173,3.173,0,1,0,0-6.346,3.173,3.173,0,1,0,0,6.346Z" transform="translate(0 -127.636)" fill-rule="evenodd"/>
  <path id="Path_60" data-name="Path 60" d="M279.472,160.673a3.173,3.173,0,1,0,3.173-3.173,3.19,3.19,0,0,0-3.173,3.173Zm-7.436,0a3.173,3.173,0,1,0,3.173-3.173,3.19,3.19,0,0,0-3.173,3.173Zm-7.436,0a3.173,3.173,0,1,0,3.173-3.173A3.19,3.19,0,0,0,264.6,160.673Z" transform="translate(-214.02 -127.393)" fill-rule="evenodd"/>
  <path id="Path_61" data-name="Path 61" d="M180.822,306.129l1.529,4.492,1.472-4.549h.822c-.631,1.892-1.281,3.785-1.912,5.677h-.8l-1.587-4.511-1.567,4.511h-.784l-1.892-5.677h.841l1.472,4.549,1.567-4.549h.841v.057Zm8.373,5.6h-.669v-4.97h-2.16v-.707h5.066v.707h-2.16v4.97Zm5.276,0H193.8v-5.677h.765v2.313h3.766v-2.313h.765v5.677h-.765v-2.638h-3.766v2.638Zm8.793-2.37H205.4l-1.051-2.389-1.09,2.389Zm3.9,2.37h-.726l-.726-1.663h-2.772l-.745,1.663h-.822l2.581-5.677h.784l2.581,5.677Zm6.193-.726-.669-.516.421-.516.879.669a1.959,1.959,0,0,0,.535-.688,2.462,2.462,0,0,0,.191-1.051,2.19,2.19,0,0,0-.612-1.644,2.374,2.374,0,0,0-1.663-.631,2.262,2.262,0,0,0-1.663.631,2.234,2.234,0,0,0-.612,1.644,2.19,2.19,0,0,0,.612,1.644,2.374,2.374,0,0,0,1.663.631,2.6,2.6,0,0,0,.554-.057c.134-.038.249-.076.363-.115Zm1.243.1.8.631-.421.516-.975-.746a3.167,3.167,0,0,1-.707.268,3.3,3.3,0,0,1-.86.1,3.1,3.1,0,0,1-2.237-.841,3.145,3.145,0,0,1,0-4.282,3.218,3.218,0,0,1,2.237-.841,3.1,3.1,0,0,1,2.237.841,2.858,2.858,0,0,1,.841,2.141,3.526,3.526,0,0,1-.248,1.319A2.268,2.268,0,0,1,214.6,311.1Z" transform="translate(-142.437 -247.425)" fill-rule="evenodd"/>
</svg>
